# xmcd CD database file
#
# Track frame offsets:
#	150
#	16877
#	33900
#	49790
#
# Disc length: 876 seconds
#
# Revision: 12
# Processed by: cddbd v1.5.2PL0 Copyright (c) Steve Scherf et al.
# Submitted via: CDex 1.70beta2
#
DISCID=25036a04
DTITLE=Destiny's Child - The Writing's On The Wall CD2
DYEAR=1999
DGENRE=R&B
TTITLE0=Independent Women Part 1 (Pasadena Remix)
TTITLE1=Independent Women Part 2
TTITLE2=8 Days Of Christmas
TTITLE3=No No No Part 2 (ft Wyclef Jean)
EXTD=YEAR: 1999
EXTT0=
EXTT1=
EXTT2=
EXTT3=
PLAYORDER=
